<?xml version="1.0" encoding="UTF-8"?>
<svg id="Layer_1" xmlns="http://www.w3.org/2000/svg" version="1.1" viewBox="0 0 48 48">
  <!-- Generator: Adobe Illustrator 29.3.1, SVG Export Plug-In . SVG Version: 2.1.0 Build 151)  -->
  <defs>
    <style>
      .st0 {
        fill: #fff;
      }

      .st1 {
        fill: none;
      }
    </style>
  </defs>
  <path class="st1" d="M0,0h48v48H0V0Z"/>
  <path class="st0" d="M24,16c-4.4,0-8,3.6-8,8s3.6,8,8,8,8-3.6,8-8-3.6-8-8-8ZM41.9,22c-.9-8.3-7.5-15-15.9-15.9V2h-4v4.1c-8.3.9-15,7.5-15.9,15.9H2v4h4.1c.9,8.3,7.5,15,15.9,15.9v4.1h4v-4.1c8.3-.9,15-7.5,15.9-15.9h4.1v-4h-4.1ZM24,38c-7.7,0-14-6.3-14-14s6.3-14,14-14,14,6.3,14,14-6.3,14-14,14Z"/>
</svg>